<svg id="svg" version="1.1" xmlns="http://www.w3.org/2000/svg" xmlns:xlink="http://www.w3.org/1999/xlink" width="400" height="408.4375" viewBox="0, 0, 400,408.4375"><g id="svgg"><path id="path0" d="M146.875 48.990 C 146.875 49.375,149.509 53.265,151.262 55.469 C 155.500 60.797,159.625 63.995,168.553 68.879 C 176.844 73.414,177.833 74.140,184.328 80.462 C 189.936 85.920,190.938 87.821,190.938 93.004 C 190.938 93.112,189.176 91.497,187.023 89.416 C 178.559 81.234,174.000 78.489,166.746 77.205 C 164.434 76.795,164.505 76.894,165.179 75.022 C 166.887 70.272,160.199 74.970,155.869 81.563 C 151.385 88.389,150.588 98.981,153.804 109.024 C 154.584 111.460,154.811 111.882,155.149 111.524 C 155.373 111.287,157.039 109.375,158.851 107.274 L 162.147 103.455 163.281 105.000 C 167.370 110.570,172.626 111.802,177.927 108.434 C 179.820 107.231,179.697 107.080,177.330 107.701 C 165.605 110.777,159.322 98.495,169.255 91.916 L 170.649 90.992 169.687 90.781 C 167.695 90.344,163.273 91.466,160.625 93.081 C 159.036 94.050,158.966 93.975,159.129 91.484 C 159.374 87.750,161.769 84.094,165.356 81.983 C 168.386 80.199,168.824 80.318,166.842 82.389 C 165.113 84.195,164.063 85.554,164.063 85.985 C 164.063 86.106,165.785 86.206,167.891 86.206 C 175.585 86.207,179.442 88.035,183.804 93.750 L 184.638 94.844 184.339 93.473 C 183.594 90.059,180.877 86.585,177.320 84.501 C 174.935 83.103,176.044 83.297,179.119 84.814 C 191.119 90.738,194.964 104.748,186.917 113.228 C 184.966 115.284,184.569 115.320,185.348 113.370 C 187.572 107.800,187.875 106.278,187.199 104.063 C 186.976 103.329,186.947 103.319,186.726 103.906 C 184.751 109.158,181.520 113.167,178.281 114.383 C 172.644 116.500,166.329 114.964,162.217 110.474 C 160.792 108.918,160.000 108.982,160.000 110.654 C 160.000 111.600,164.549 115.523,167.122 116.794 C 169.817 118.126,175.358 118.475,179.001 117.542 C 181.343 116.942,181.266 117.203,178.670 118.671 C 171.691 122.618,165.137 122.140,158.623 117.209 C 156.748 115.790,156.561 115.712,156.544 116.341 C 156.496 118.194,156.003 124.101,155.887 124.218 C 155.814 124.290,154.897 124.083,153.849 123.757 C 152.801 123.431,151.085 123.067,150.035 122.948 L 148.125 122.732 148.125 124.129 C 148.125 124.897,147.923 126.197,147.676 127.017 C 146.718 130.201,151.818 133.336,157.532 133.076 C 160.416 132.945,160.375 132.921,158.689 133.781 C 157.371 134.454,155.433 134.483,152.300 133.879 L 151.320 133.689 150.005 137.079 C 143.967 152.639,138.605 172.196,136.351 186.875 C 135.742 190.842,135.548 204.478,136.052 207.969 L 136.322 209.844 137.180 205.625 C 138.604 198.621,142.989 185.065,144.247 183.777 C 144.316 183.706,145.362 184.653,146.572 185.882 C 156.269 195.734,163.349 193.831,170.204 179.531 C 170.863 178.156,171.425 176.985,171.454 176.929 C 171.482 176.873,172.113 177.487,172.856 178.292 C 174.396 179.963,176.968 181.555,178.134 181.560 C 179.459 181.564,182.316 179.212,184.103 176.645 L 185.024 175.321 186.697 176.265 C 192.544 179.564,195.445 177.166,198.436 166.563 C 199.139 164.070,199.793 161.820,199.890 161.563 C 199.987 161.305,200.675 163.218,201.419 165.815 C 204.707 177.295,207.095 179.479,212.996 176.404 C 214.152 175.801,215.121 175.344,215.147 175.388 C 219.072 181.990,222.571 182.952,226.860 178.609 L 228.561 176.886 230.023 179.827 C 234.103 188.035,238.236 192.178,242.353 192.185 C 245.560 192.190,251.148 188.868,254.480 184.976 C 255.884 183.335,255.699 183.141,257.784 188.438 C 260.380 195.036,262.654 203.040,263.327 207.951 C 264.066 213.338,264.780 196.978,264.098 190.300 C 262.729 176.895,256.681 153.968,250.046 137.031 C 248.868 134.024,248.788 133.909,247.926 133.989 C 244.261 134.328,241.997 134.198,241.041 133.594 L 240.051 132.969 243.245 132.969 C 246.818 132.969,250.031 131.777,251.998 129.723 L 252.903 128.778 252.367 126.870 C 252.073 125.820,251.876 124.513,251.930 123.965 L 252.028 122.969 250.273 123.026 C 248.822 123.074,246.159 123.652,244.483 124.283 C 244.132 124.415,243.856 122.091,243.667 117.423 C 243.626 116.435,243.557 115.627,243.511 115.626 C 243.466 115.625,242.665 116.247,241.731 117.008 C 240.797 117.769,238.805 118.999,237.305 119.742 L 234.576 121.094 230.648 121.080 C 226.309 121.065,224.074 120.450,220.856 118.385 C 218.929 117.149,219.030 117.097,222.207 117.699 C 228.804 118.948,233.196 117.682,237.864 113.187 L 240.438 110.707 239.882 109.858 L 239.325 109.008 237.188 111.071 C 231.561 116.504,222.982 116.851,218.075 111.846 C 216.408 110.145,213.438 105.039,213.438 103.874 C 213.438 102.754,212.870 103.610,212.684 105.011 C 212.408 107.092,212.670 108.330,214.127 111.833 C 215.600 115.376,215.504 115.573,213.371 113.383 C 205.187 104.979,208.690 91.033,220.490 85.045 C 223.817 83.357,225.232 82.998,222.734 84.477 C 219.104 86.626,216.233 90.364,215.727 93.601 L 215.532 94.844 217.041 92.851 C 220.744 87.961,224.733 86.222,232.266 86.213 C 234.285 86.211,235.938 86.102,235.938 85.971 C 235.938 85.421,233.905 82.725,232.704 81.681 C 231.627 80.746,231.539 80.593,232.188 80.781 C 235.242 81.668,239.183 85.333,240.303 88.328 C 240.842 89.769,241.222 93.750,240.821 93.750 C 240.756 93.750,240.074 93.398,239.304 92.968 C 235.230 90.691,227.138 89.623,230.716 91.835 C 240.919 98.141,234.765 110.504,222.814 107.710 C 220.242 107.109,220.199 107.186,222.357 108.535 C 227.768 111.920,232.912 110.466,237.351 104.298 L 237.969 103.439 241.563 107.642 L 245.156 111.845 245.688 110.671 C 249.163 103.007,248.962 89.659,245.275 83.215 C 240.752 75.310,232.454 69.219,235.192 75.813 L 235.595 76.783 232.963 77.300 C 225.586 78.750,222.193 80.808,213.162 89.315 C 210.861 91.482,209.057 92.979,209.153 92.643 C 209.248 92.306,209.497 90.768,209.706 89.224 L 210.085 86.417 212.464 83.795 C 218.670 76.954,223.247 73.381,231.719 68.760 C 239.003 64.786,241.593 63.011,244.886 59.734 C 248.561 56.076,254.083 48.750,253.164 48.750 C 251.113 48.750,230.196 53.283,223.627 55.152 C 216.332 57.226,213.882 58.811,211.533 62.973 L 210.515 64.777 210.090 63.320 C 209.161 60.134,213.821 55.909,220.469 53.911 C 222.016 53.446,223.492 52.989,223.750 52.896 C 224.008 52.802,223.023 52.475,221.563 52.170 C 210.112 49.777,191.507 49.731,178.960 52.064 C 175.687 52.673,175.705 52.701,180.313 54.164 C 186.723 56.199,191.010 60.415,189.902 63.594 L 189.467 64.844 188.672 63.281 C 185.668 57.373,180.319 55.242,156.953 50.647 C 147.066 48.702,146.875 48.670,146.875 48.990 M104.123 69.297 C 103.972 69.598,103.677 70.838,103.468 72.053 C 102.955 75.036,102.081 76.410,97.500 81.431 C 92.605 86.796,81.382 99.847,80.608 101.075 C 79.499 102.833,77.192 113.696,77.106 117.559 C 76.995 122.619,80.609 123.832,85.880 120.505 L 87.145 119.707 87.329 121.494 C 88.279 130.709,90.277 133.438,96.073 133.438 C 97.623 133.437,97.834 133.509,97.694 133.984 C 95.271 142.207,98.620 145.951,108.046 145.560 C 111.315 145.424,111.333 145.515,108.281 146.731 C 100.413 149.866,95.203 146.609,93.898 137.737 C 93.690 136.322,93.621 136.239,92.389 135.907 C 87.928 134.706,85.926 132.158,84.968 126.460 C 84.567 124.070,84.540 124.019,83.763 124.209 C 74.820 126.403,72.601 121.289,76.390 107.213 C 76.755 105.859,76.763 105.609,76.430 105.963 C 76.200 106.207,73.570 109.289,70.585 112.813 L 65.156 119.219 65.171 121.094 C 65.200 124.611,67.348 129.305,69.629 130.833 C 71.719 132.233,73.994 132.376,78.040 131.360 C 78.715 131.191,78.738 131.247,78.557 132.574 C 78.111 135.823,79.397 141.299,80.925 142.656 C 82.272 143.854,85.845 143.551,89.160 141.958 C 91.613 140.780,91.891 140.706,91.708 141.285 C 88.268 152.123,92.550 158.198,99.756 152.702 L 100.836 151.878 101.966 153.520 C 103.840 156.240,105.288 156.739,108.395 155.736 L 109.988 155.222 111.369 156.495 C 114.459 159.343,116.823 159.789,120.147 158.153 C 122.572 156.959,122.250 156.900,123.444 158.760 C 125.291 161.638,125.638 161.641,131.328 158.814 C 131.457 158.750,131.563 159.483,131.563 160.442 C 131.563 161.993,135.388 171.511,136.574 172.910 C 136.692 173.050,137.108 171.785,137.497 170.099 C 137.887 168.413,139.035 164.096,140.048 160.506 L 141.891 153.979 141.096 153.005 C 136.470 147.337,134.834 143.873,133.269 136.430 C 131.852 129.693,131.748 129.522,129.589 130.425 C 126.771 131.602,123.790 135.490,121.393 141.111 C 118.521 147.847,117.152 149.057,114.722 147.012 C 112.436 145.089,113.829 139.317,118.225 132.504 C 119.583 130.400,119.769 130.529,115.941 130.922 C 106.754 131.865,99.028 131.057,98.536 129.101 C 98.115 127.426,100.493 119.311,102.997 113.876 C 103.084 113.688,101.425 114.009,99.312 114.589 C 83.039 119.054,80.599 116.424,86.432 100.710 C 87.897 96.761,87.971 96.814,87.215 101.279 C 86.473 105.659,85.764 113.368,86.074 113.678 C 86.199 113.804,88.435 113.902,91.042 113.897 C 97.103 113.886,100.710 112.705,106.766 108.747 L 107.750 108.103 105.325 114.149 C 100.014 127.389,99.970 127.681,103.193 128.454 C 107.412 129.466,121.553 126.204,126.787 123.011 C 127.781 122.405,129.702 121.474,131.056 120.942 C 134.587 119.555,135.244 119.164,135.776 118.135 C 139.133 111.643,124.451 81.451,113.512 72.352 C 109.651 69.141,104.966 67.616,104.123 69.297 M290.789 69.564 C 281.741 74.210,269.954 92.391,265.182 109.063 C 262.851 117.205,263.266 118.648,268.537 120.734 C 270.165 121.379,272.391 122.445,273.483 123.104 C 280.242 127.179,295.924 130.032,298.654 127.683 L 299.476 126.977 298.611 124.348 C 298.135 122.902,296.566 118.733,295.123 115.083 C 293.680 111.433,292.500 108.368,292.500 108.271 C 292.500 108.174,293.142 108.537,293.926 109.076 C 296.304 110.712,301.682 113.118,304.114 113.633 C 306.441 114.126,313.469 114.135,313.959 113.645 C 314.291 113.313,313.551 105.095,312.830 101.108 C 312.060 96.846,312.137 96.766,313.519 100.383 C 317.001 109.499,317.386 114.660,314.683 116.015 C 312.481 117.120,304.703 116.119,298.516 113.934 C 296.916 113.369,296.914 113.389,298.249 116.637 C 301.012 123.360,302.181 128.712,301.118 129.775 C 299.855 131.038,290.695 131.582,283.210 130.839 L 280.639 130.583 281.760 132.245 C 287.077 140.129,288.078 147.056,283.993 147.706 C 282.194 147.993,281.121 146.683,278.959 141.560 C 276.343 135.362,273.444 131.588,270.406 130.428 C 268.479 129.692,268.298 129.965,267.162 135.327 C 265.480 143.268,263.903 146.922,260.150 151.571 L 258.182 154.008 260.001 160.395 C 261.002 163.908,262.142 168.210,262.536 169.954 C 262.929 171.698,263.328 173.121,263.422 173.117 C 264.037 173.088,268.750 161.752,268.750 160.302 L 268.750 158.732 270.828 159.835 C 274.081 161.561,275.322 161.235,277.054 158.203 C 277.750 156.986,277.814 156.979,279.476 157.951 C 282.641 159.802,285.115 159.502,288.354 156.873 L 290.303 155.292 292.068 155.805 C 295.102 156.687,296.613 156.066,298.421 153.192 L 299.263 151.853 300.022 152.446 C 306.727 157.683,311.337 153.370,309.095 143.960 C 308.733 142.442,308.438 141.070,308.438 140.909 C 308.438 140.749,309.598 141.202,311.016 141.917 C 318.264 145.568,321.563 143.034,321.563 133.812 C 321.563 131.229,321.576 131.181,322.266 131.377 C 329.611 133.466,335.000 129.037,335.000 120.911 L 335.000 119.122 332.171 115.889 C 330.615 114.111,328.048 111.082,326.468 109.157 C 323.518 105.567,322.910 105.018,323.450 106.440 C 325.081 110.728,325.913 120.121,324.855 122.303 C 323.755 124.571,320.532 125.282,316.215 124.209 C 315.417 124.011,315.395 124.048,315.180 125.944 C 314.508 131.889,312.037 135.009,307.172 136.059 C 306.455 136.213,306.337 136.457,305.989 138.506 C 304.475 147.417,299.134 150.081,290.587 146.187 L 288.906 145.421 291.568 145.559 C 301.259 146.058,305.313 141.699,302.332 133.984 C 302.145 133.502,302.336 133.438,303.953 133.438 C 309.523 133.438,311.772 130.746,312.585 123.107 L 312.935 119.808 315.295 121.029 C 320.301 123.619,322.989 122.457,322.938 117.723 C 322.897 113.836,320.624 102.748,319.518 101.038 C 318.531 99.512,305.772 84.751,300.806 79.391 C 298.041 76.405,297.086 74.619,296.539 71.406 C 296.333 70.203,296.009 69.115,295.817 68.989 C 295.022 68.465,292.330 68.773,290.789 69.564 M148.025 73.203 C 146.878 74.614,145.000 77.485,145.000 77.827 C 145.000 78.046,152.294 81.568,152.716 81.554 C 152.917 81.547,153.934 79.411,155.166 76.406 C 155.275 76.140,149.721 71.875,149.264 71.875 C 149.176 71.875,148.619 72.473,148.025 73.203 M247.861 73.922 C 246.287 75.047,245.000 76.079,245.000 76.213 C 245.000 76.556,247.036 81.202,247.302 81.469 C 247.559 81.726,255.000 78.112,255.000 77.731 C 255.000 77.284,251.189 71.875,250.874 71.875 C 250.790 71.875,249.435 72.796,247.861 73.922 M142.076 83.828 C 141.245 86.126,140.142 90.564,140.353 90.764 C 140.595 90.993,149.721 91.633,149.920 91.435 C 150.034 91.320,150.435 89.948,150.810 88.386 L 151.491 85.546 147.320 83.554 C 145.025 82.459,143.092 81.563,143.022 81.563 C 142.953 81.563,142.527 82.582,142.076 83.828 M252.969 83.454 C 250.906 84.465,249.082 85.342,248.914 85.404 C 248.656 85.498,249.178 88.484,249.903 91.058 C 250.054 91.595,250.292 91.629,252.613 91.444 C 259.915 90.864,259.688 90.904,259.688 90.185 C 259.688 88.736,257.377 81.533,256.931 81.590 C 256.814 81.604,255.031 82.444,252.969 83.454 M172.615 94.075 C 171.114 94.533,169.461 96.557,169.208 98.245 C 168.444 103.341,175.200 106.099,178.346 101.974 C 181.300 98.101,177.333 92.633,172.615 94.075 M224.178 94.075 C 222.667 94.536,221.024 96.556,220.767 98.267 C 220.005 103.351,226.760 106.102,229.900 101.985 C 232.837 98.134,228.864 92.642,224.178 94.075 M140.000 96.463 C 140.000 98.100,140.573 104.598,140.770 105.192 C 140.846 105.422,142.419 105.094,145.365 104.235 L 149.844 102.930 149.828 101.777 C 149.820 101.144,149.784 99.521,149.750 98.171 L 149.688 95.717 146.953 95.508 C 145.449 95.394,143.270 95.212,142.109 95.105 L 140.000 94.910 140.000 96.463 M253.906 95.435 L 250.469 95.781 250.279 99.219 C 250.175 101.109,250.175 102.746,250.279 102.856 C 250.510 103.100,258.232 105.313,258.851 105.313 C 259.399 105.313,259.626 103.902,259.893 98.828 L 260.095 95.000 258.719 95.044 C 257.963 95.068,255.797 95.244,253.906 95.435 M176.274 96.851 C 178.207 98.784,176.913 101.875,174.171 101.875 C 172.633 101.875,171.250 100.469,171.250 98.906 C 171.250 97.319,172.631 95.938,174.219 95.938 C 175.064 95.938,175.598 96.175,176.274 96.851 M227.837 96.851 C 229.715 98.730,228.429 101.875,225.781 101.875 C 224.194 101.875,222.813 100.494,222.813 98.906 C 222.813 97.319,224.194 95.938,225.781 95.938 C 226.627 95.938,227.160 96.175,227.837 96.851 M204.354 110.516 C 209.540 121.273,217.037 127.536,229.688 131.677 C 232.711 132.667,232.883 132.765,231.875 132.923 C 226.490 133.765,222.436 133.298,216.095 131.104 C 207.560 128.152,204.889 129.104,201.453 136.318 C 200.256 138.832,199.688 139.601,199.688 138.705 C 199.688 137.804,197.373 133.677,196.032 132.185 C 193.159 128.989,190.907 128.667,185.313 130.654 C 178.294 133.146,173.374 133.828,168.499 132.985 L 167.154 132.752 170.832 131.519 C 186.538 126.256,194.511 117.527,199.892 99.702 C 199.967 99.452,200.590 100.929,201.276 102.983 C 201.962 105.038,203.347 108.427,204.354 110.516 M146.141 108.525 L 141.812 109.795 142.009 111.025 C 142.294 112.805,143.869 116.724,145.208 118.984 L 146.365 120.938 148.886 120.939 C 150.272 120.940,151.947 121.091,152.607 121.275 C 154.109 121.691,154.023 121.812,154.264 118.957 C 154.446 116.805,154.382 116.358,153.641 114.607 C 153.187 113.534,152.418 111.469,151.932 110.019 C 150.869 106.844,151.403 106.981,146.141 108.525 M248.929 107.557 C 248.858 107.783,248.488 108.953,248.107 110.156 C 247.727 111.359,247.008 113.253,246.509 114.364 C 245.335 116.981,245.456 121.798,246.686 121.397 C 247.048 121.280,248.781 121.112,250.537 121.025 L 253.730 120.867 254.681 119.385 C 256.015 117.307,258.759 110.162,258.354 109.824 C 258.314 109.791,256.453 109.248,254.219 108.617 C 251.984 107.986,249.909 107.396,249.608 107.307 C 249.306 107.217,249.001 107.329,248.929 107.557 M199.688 110.452 C 199.688 111.866,197.525 116.609,195.499 119.642 L 193.259 122.995 195.077 125.169 C 196.077 126.365,197.620 128.788,198.506 130.552 L 200.118 133.761 200.639 132.387 C 201.440 130.278,203.019 127.674,205.041 125.130 L 206.876 122.821 205.479 120.984 C 203.617 118.536,201.784 115.041,200.906 112.266 C 200.247 110.182,199.688 109.350,199.688 110.452 M59.706 130.325 C 53.114 139.146,46.256 149.852,40.096 160.938 L 37.579 165.469 37.421 171.607 L 37.262 177.745 38.921 177.011 C 39.834 176.608,42.108 175.512,43.975 174.575 L 47.370 172.872 50.164 168.233 C 54.549 160.952,62.252 149.554,67.959 141.903 C 74.154 133.598,73.843 134.203,72.042 133.956 C 71.257 133.849,70.214 133.554,69.725 133.301 L 68.837 132.841 57.658 148.139 C 46.653 163.201,45.350 164.897,47.046 161.953 C 53.368 150.978,59.762 141.072,65.991 132.605 L 66.948 131.304 66.148 130.255 C 65.708 129.678,64.943 128.300,64.449 127.194 L 63.550 125.181 59.706 130.325 M335.854 126.841 C 335.555 127.682,334.838 129.058,334.259 129.898 L 333.208 131.427 335.386 134.385 C 340.190 140.910,348.441 153.816,353.259 162.344 C 354.788 165.050,353.462 163.323,343.422 149.531 C 338.042 142.141,333.095 135.369,332.431 134.484 L 331.222 132.875 330.258 133.355 C 329.728 133.620,328.680 133.905,327.929 133.990 C 326.190 134.186,325.833 133.463,331.344 140.896 C 339.623 152.060,343.327 157.505,349.656 167.813 L 352.822 172.969 357.841 175.381 L 362.861 177.794 362.653 171.631 L 362.445 165.469 359.771 160.625 C 353.716 149.656,347.564 140.028,340.459 130.399 C 336.156 124.568,336.552 124.874,335.854 126.841 M72.630 139.375 C 59.601 157.165,51.192 170.676,38.206 194.688 L 35.080 200.469 35.274 207.391 L 35.469 214.313 41.087 211.453 L 46.705 208.594 53.378 197.969 C 57.048 192.125,63.117 182.563,66.865 176.719 C 70.613 170.875,76.637 161.424,80.251 155.717 L 86.822 145.341 84.854 145.525 C 83.445 145.656,82.460 145.564,81.390 145.199 C 80.567 144.919,79.869 144.724,79.839 144.767 C 79.810 144.809,73.078 154.758,64.881 166.875 C 56.683 178.992,49.699 189.258,49.361 189.688 C 48.266 191.076,57.766 175.389,62.870 167.379 C 66.999 160.900,72.712 152.435,77.787 145.279 L 78.808 143.839 78.196 142.622 C 77.233 140.708,76.869 139.327,76.629 136.680 L 76.406 134.219 72.630 139.375 M323.452 137.514 C 323.195 139.396,322.770 140.929,322.179 142.099 L 321.293 143.857 324.815 148.882 C 332.316 159.582,338.974 169.874,346.865 182.969 C 349.144 186.750,351.083 189.984,351.175 190.156 C 351.891 191.499,348.824 187.043,335.595 167.520 C 327.276 155.242,320.388 145.078,320.290 144.935 C 320.191 144.791,319.559 144.904,318.884 145.186 C 317.995 145.557,317.078 145.656,315.548 145.547 C 314.387 145.464,313.438 145.446,313.438 145.507 C 313.438 145.648,325.433 164.574,334.112 178.125 C 337.799 183.883,343.677 193.139,347.173 198.693 L 353.529 208.793 359.129 211.511 C 362.210 213.005,364.791 214.167,364.865 214.093 C 364.939 214.019,365.000 210.901,365.000 207.165 L 365.000 200.372 360.670 192.452 C 350.154 173.213,342.160 160.055,333.646 147.969 C 330.657 143.724,324.047 134.688,323.932 134.688 C 323.881 134.688,323.665 135.960,323.452 137.514 M201.212 148.587 C 207.094 156.779,215.471 160.781,225.547 160.215 L 228.750 160.035 228.750 161.075 C 228.750 162.384,228.401 162.490,224.054 162.496 C 212.938 162.510,206.173 159.681,201.406 153.025 C 199.893 150.912,200.074 150.927,198.795 152.812 C 194.214 159.566,187.301 162.489,175.885 162.497 C 171.848 162.501,171.562 162.411,171.563 161.138 L 171.563 160.156 176.485 160.122 C 186.440 160.053,193.448 156.356,199.180 148.148 C 200.029 146.932,200.022 146.931,201.212 148.587 M86.362 151.965 C 85.479 153.376,81.907 159.031,78.424 164.531 C 64.070 187.199,55.804 201.716,44.709 223.750 L 40.382 232.344 41.059 240.686 C 41.432 245.275,41.803 249.088,41.884 249.161 C 41.965 249.235,44.853 247.350,48.301 244.974 L 54.571 240.655 57.802 232.905 C 70.367 202.777,79.163 185.735,94.596 161.614 C 96.393 158.806,97.816 156.465,97.759 156.413 C 97.703 156.360,97.023 156.413,96.250 156.529 C 94.921 156.729,93.230 156.569,92.188 156.143 C 91.831 155.998,90.469 158.220,86.514 165.398 C 83.651 170.593,77.767 181.172,73.438 188.906 C 69.109 196.641,62.041 209.438,57.732 217.344 C 53.422 225.250,49.770 231.859,49.616 232.031 C 49.122 232.582,55.789 218.953,61.692 207.344 C 69.275 192.433,77.177 177.733,86.614 160.982 L 90.022 154.933 89.230 153.343 C 88.794 152.468,88.438 151.217,88.438 150.564 C 88.438 148.887,88.180 149.061,86.362 151.965 M311.638 151.244 C 311.444 152.284,311.006 153.528,310.663 154.009 L 310.040 154.884 310.832 156.270 C 324.043 179.410,350.930 230.737,350.215 231.452 C 350.160 231.507,347.882 227.441,345.153 222.417 C 342.424 217.392,336.123 205.969,331.150 197.031 C 326.178 188.094,319.015 175.217,315.233 168.416 L 308.357 156.050 306.886 156.432 C 305.877 156.693,304.940 156.725,303.905 156.531 C 303.075 156.376,302.352 156.294,302.298 156.347 C 302.244 156.401,303.898 159.109,305.973 162.363 C 320.761 185.564,329.863 203.211,341.869 231.961 L 345.493 240.640 351.853 245.016 C 355.351 247.422,358.243 249.352,358.278 249.305 C 358.314 249.257,358.647 245.437,359.018 240.815 L 359.692 232.410 355.046 223.158 C 343.053 199.273,332.493 181.080,314.167 152.724 L 311.989 149.355 311.638 151.244 M96.963 161.797 C 91.908 169.685,88.694 174.944,84.597 182.031 L 81.165 187.969 81.366 204.531 C 81.673 229.919,82.466 246.478,84.397 267.813 C 85.064 275.187,86.725 290.627,87.052 292.500 C 87.157 293.102,87.156 293.508,87.050 293.402 C 86.695 293.050,84.081 279.303,82.987 272.031 C 80.550 255.837,79.579 242.433,78.741 213.438 C 78.549 206.820,78.293 199.719,78.171 197.656 L 77.948 193.906 74.577 200.707 L 71.206 207.508 71.549 218.988 C 72.616 254.739,75.015 280.383,79.835 307.577 L 80.873 313.435 86.119 318.919 C 89.674 322.635,91.437 324.273,91.589 323.999 C 92.078 323.114,98.212 308.261,98.209 307.969 C 98.208 307.797,97.701 305.406,97.083 302.656 C 86.492 255.515,89.229 194.420,103.405 161.563 C 104.917 158.058,104.891 158.244,103.912 157.998 C 103.485 157.891,102.658 157.384,102.074 156.870 C 101.489 156.357,100.945 155.938,100.865 155.938 C 100.784 155.938,99.028 158.574,96.963 161.797 M297.848 157.047 C 297.094 157.640,296.200 158.125,295.862 158.125 C 295.490 158.125,295.311 158.280,295.410 158.516 C 311.058 195.720,314.013 252.624,302.915 303.020 L 301.803 308.072 305.194 316.225 C 307.059 320.709,308.661 324.342,308.754 324.298 C 308.847 324.255,311.239 321.780,314.071 318.799 L 319.219 313.379 320.368 306.768 C 325.190 279.024,327.482 254.535,328.474 220.156 L 328.844 207.344 325.445 200.625 L 322.047 193.906 321.831 199.688 C 321.712 202.867,321.459 210.320,321.267 216.250 C 320.114 251.917,318.172 271.037,313.746 290.313 C 313.008 293.523,312.994 293.730,314.518 279.375 C 317.384 252.393,318.739 226.709,318.747 199.253 L 318.750 187.724 316.047 183.003 C 311.591 175.220,299.571 155.847,299.265 155.954 C 299.239 155.962,298.602 156.455,297.848 157.047 M289.556 158.630 C 286.589 161.196,283.492 161.862,280.255 160.632 L 278.629 160.014 277.320 161.380 C 275.779 162.989,274.635 163.325,272.469 162.805 C 270.581 162.352,271.117 161.726,268.448 167.500 C 265.956 172.892,265.919 173.294,267.667 175.988 C 269.334 178.556,272.706 177.191,274.886 173.066 L 275.433 172.031 275.659 173.281 C 276.499 177.917,278.946 177.467,283.742 171.795 C 285.711 169.467,285.706 169.626,283.697 173.037 C 279.882 179.515,277.414 181.400,276.017 178.903 C 275.767 178.456,275.541 178.516,274.118 179.400 C 271.123 181.262,269.016 181.007,265.881 178.402 C 265.077 177.734,264.363 177.188,264.293 177.188 C 264.224 177.188,264.489 178.910,264.881 181.016 C 265.273 183.121,265.758 186.602,265.959 188.750 C 266.529 194.864,266.339 194.773,269.328 190.363 C 270.745 188.273,271.933 186.562,271.968 186.562 C 272.003 186.562,271.996 189.480,271.953 193.047 L 271.875 199.531 272.891 198.416 C 273.449 197.802,275.090 195.974,276.538 194.353 C 280.718 189.671,285.313 184.880,285.313 185.204 C 285.313 185.367,284.324 188.290,283.116 191.700 C 281.908 195.109,280.989 197.968,281.073 198.052 C 281.353 198.332,285.931 195.979,288.319 194.329 C 293.237 190.929,296.058 186.726,297.642 180.439 C 299.049 174.853,299.028 174.258,297.238 169.049 C 293.505 158.185,292.169 156.372,289.556 158.630 M107.836 158.087 C 106.899 158.348,105.161 162.216,102.772 169.357 L 101.158 174.183 101.714 177.170 C 103.250 185.416,105.661 189.736,110.953 193.724 C 113.445 195.602,118.612 198.367,118.966 198.013 C 119.067 197.913,118.143 194.992,116.915 191.523 C 115.686 188.053,114.730 185.166,114.790 185.106 C 114.850 185.046,117.137 187.421,119.871 190.383 C 122.606 193.346,125.639 196.610,126.611 197.638 L 128.378 199.505 128.222 192.956 L 128.066 186.406 130.391 189.844 C 133.699 194.733,133.615 194.709,133.871 190.859 C 133.988 189.098,134.484 185.336,134.972 182.500 C 136.018 176.430,136.115 176.941,134.209 178.451 C 130.817 181.140,128.268 181.320,125.413 179.075 L 124.613 178.445 123.689 179.222 C 121.705 180.891,119.709 179.040,115.612 171.734 L 114.569 169.874 116.894 172.329 C 121.829 177.542,123.707 177.847,124.324 173.535 L 124.539 172.031 125.311 173.281 C 128.237 178.020,131.077 178.665,132.874 175.000 C 134.082 172.537,134.120 172.770,131.604 167.301 L 129.301 162.297 127.936 162.747 C 125.905 163.416,124.517 163.037,122.834 161.353 L 121.428 159.948 120.324 160.478 C 117.452 161.854,114.255 161.349,111.174 159.034 C 109.529 157.798,109.201 157.705,107.836 158.087 M199.917 170.625 C 199.835 170.883,199.276 173.133,198.675 175.625 C 196.679 183.906,194.825 187.627,190.564 191.907 C 185.783 196.709,181.577 198.078,178.596 195.804 C 177.461 194.939,176.185 195.366,176.808 196.403 C 176.912 196.577,181.259 202.814,186.467 210.263 C 195.760 223.554,195.938 223.836,195.938 225.341 C 195.938 227.559,196.026 227.657,189.375 218.095 C 182.103 207.640,182.996 208.515,180.979 209.874 C 176.678 212.770,172.177 212.001,170.894 208.150 C 170.799 207.866,170.166 207.849,168.275 208.080 C 162.669 208.765,159.592 207.098,157.929 202.474 C 157.520 201.338,157.230 200.943,156.885 201.054 C 149.408 203.457,145.245 202.066,143.208 196.484 C 142.428 194.350,142.393 194.415,140.812 200.859 C 135.549 222.320,136.016 237.979,142.281 250.156 L 143.407 252.344 143.425 248.438 C 143.461 240.483,144.900 232.040,147.992 221.631 C 149.808 215.517,149.657 215.794,150.710 216.650 L 151.562 217.344 150.596 220.313 C 146.830 231.891,145.022 243.806,145.655 252.883 C 145.889 256.244,146.930 262.438,147.387 263.190 C 147.461 263.312,148.161 262.187,148.944 260.690 C 152.405 254.069,153.622 252.488,158.558 248.197 L 160.397 246.598 160.466 239.784 C 160.531 233.325,161.304 224.571,161.861 223.969 C 162.105 223.706,163.750 224.328,163.750 224.683 C 163.750 224.798,163.516 226.427,163.231 228.305 C 162.127 235.557,162.804 253.704,164.236 255.268 C 164.865 255.955,175.878 248.758,179.470 245.313 L 182.239 242.656 181.566 240.313 C 181.164 238.912,180.820 236.597,180.712 234.561 L 180.532 231.153 181.282 231.353 C 181.694 231.464,182.125 231.556,182.239 231.558 C 182.353 231.561,182.541 232.652,182.657 233.984 C 184.256 252.438,199.834 261.365,210.824 250.127 C 214.585 246.281,216.977 240.604,217.407 234.502 C 217.601 231.756,217.918 231.250,219.441 231.250 C 219.972 231.250,219.477 236.692,218.645 239.989 L 217.924 242.850 220.542 245.328 C 223.978 248.581,235.178 255.894,235.766 255.269 C 235.917 255.108,236.783 250.569,237.181 247.845 C 237.857 243.232,237.330 228.432,236.377 225.251 C 236.236 224.781,237.957 223.476,238.283 223.805 C 238.768 224.295,239.500 233.638,239.514 239.530 L 239.531 246.404 240.625 247.336 C 245.932 251.858,247.374 253.626,250.651 259.629 L 252.751 263.477 253.389 260.723 C 255.793 250.335,254.835 238.288,250.397 223.125 C 248.555 216.828,248.595 217.134,249.527 216.469 C 250.472 215.794,250.343 215.541,252.214 221.719 C 254.999 230.919,256.577 240.079,256.667 247.575 C 256.729 252.719,256.746 252.729,258.524 248.670 C 264.016 236.131,264.295 221.163,259.405 201.406 C 257.630 194.237,257.792 194.503,256.665 196.903 C 254.322 201.894,250.653 203.354,244.950 201.567 C 242.605 200.832,242.500 200.821,242.500 201.328 C 242.499 202.122,240.675 205.496,239.805 206.312 C 237.975 208.028,234.589 208.658,230.758 207.996 C 229.528 207.784,229.455 207.819,228.593 209.064 C 226.232 212.470,222.616 212.620,218.504 209.484 C 217.177 208.472,217.775 207.821,210.625 218.070 L 204.531 226.804 204.437 225.101 L 204.343 223.398 213.673 210.058 C 218.805 202.722,223.089 196.577,223.193 196.403 C 223.696 195.562,222.541 194.853,221.799 195.548 C 218.876 198.286,214.771 197.016,209.509 191.746 C 204.993 187.223,202.939 182.901,200.806 173.438 C 200.399 171.633,199.999 170.367,199.917 170.625 M204.188 178.288 C 206.143 186.243,213.329 194.675,218.161 194.685 C 219.944 194.688,220.878 193.862,221.879 191.396 C 222.757 189.233,222.764 189.234,224.132 192.000 C 227.339 198.480,231.986 199.614,236.283 194.965 L 237.724 193.405 234.878 190.531 C 232.802 188.435,231.490 186.746,230.033 184.297 C 227.734 180.430,228.080 180.635,226.154 182.004 C 222.441 184.644,218.797 183.750,215.469 179.382 C 214.851 178.572,214.371 178.217,214.063 178.343 C 209.676 180.124,207.201 180.085,204.958 178.198 L 203.959 177.357 204.188 178.288 M194.375 178.697 C 192.547 179.781,189.349 179.857,187.188 178.868 L 185.781 178.224 183.750 180.319 C 179.978 184.209,176.614 184.593,173.252 181.518 C 172.308 180.655,171.881 180.982,170.360 183.735 C 168.696 186.746,165.512 190.769,163.792 192.031 C 162.147 193.239,162.161 193.332,164.321 195.391 C 168.653 199.524,173.391 198.050,176.074 191.737 C 177.124 189.267,177.191 189.254,178.150 191.314 C 179.395 193.992,180.139 194.688,181.757 194.688 C 186.142 194.688,192.277 188.322,194.994 180.953 C 196.170 177.764,196.139 177.651,194.375 178.697 M99.079 182.246 C 96.233 194.553,96.126 195.923,97.652 200.625 C 100.894 210.617,104.977 215.062,112.463 216.753 C 115.227 217.377,115.061 217.595,114.534 214.050 C 114.064 210.891,113.281 203.871,112.961 199.961 L 112.767 197.579 110.605 196.102 C 105.684 192.739,102.495 188.275,100.791 182.363 C 100.348 180.826,99.933 179.517,99.869 179.453 C 99.805 179.388,99.450 180.645,99.079 182.246 M299.386 182.057 C 297.768 188.182,293.651 193.757,288.516 196.778 C 287.246 197.525,287.188 197.626,287.188 199.059 C 287.188 201.067,286.702 205.956,285.906 211.975 C 285.135 217.794,284.952 217.402,288.078 216.612 C 295.618 214.705,299.820 209.865,302.816 199.639 L 303.792 196.308 303.132 192.607 C 302.328 188.093,300.631 180.309,300.328 179.743 C 300.199 179.504,299.804 180.475,299.386 182.057 M144.205 189.219 C 143.006 192.747,145.933 199.157,149.137 200.020 C 151.100 200.549,154.640 199.864,157.584 198.385 C 158.482 197.934,158.792 197.889,158.886 198.194 C 158.955 198.414,159.317 199.646,159.692 200.931 C 161.149 205.925,164.265 207.175,170.996 205.468 C 171.763 205.273,171.903 205.389,172.626 206.815 C 174.403 210.322,176.634 210.548,180.533 207.617 L 181.535 206.864 178.235 202.165 C 175.020 197.587,174.918 197.479,174.265 197.951 C 169.679 201.264,164.821 200.132,160.929 194.844 C 160.531 194.303,160.107 194.219,157.775 194.219 C 154.447 194.219,151.329 192.806,147.423 189.530 C 144.528 187.102,144.912 187.139,144.205 189.219 M253.887 188.469 C 250.762 191.769,245.885 194.198,242.256 194.261 L 239.668 194.306 237.815 196.328 C 234.276 200.190,229.531 200.994,226.304 198.279 C 225.795 197.850,225.303 197.500,225.210 197.500 C 225.117 197.500,223.566 199.601,221.763 202.168 L 218.485 206.837 219.477 207.592 C 223.285 210.491,225.465 210.309,227.400 206.930 C 227.860 206.126,228.266 205.426,228.301 205.374 C 228.337 205.322,229.529 205.515,230.950 205.802 C 237.039 207.036,239.300 205.533,240.926 199.172 L 241.257 197.876 243.435 198.791 C 250.488 201.754,253.658 200.293,255.892 193.048 L 256.542 190.939 255.884 189.219 C 255.115 187.211,255.088 187.201,253.887 188.469 M276.898 197.066 C 274.882 199.328,272.945 201.159,271.754 201.929 L 269.844 203.164 269.758 198.484 L 269.672 193.804 268.159 195.418 L 266.647 197.031 266.457 205.156 C 266.353 209.625,266.057 215.250,265.800 217.656 C 265.542 220.063,265.327 222.207,265.322 222.422 C 265.300 223.341,270.918 221.952,274.210 220.224 C 279.697 217.344,284.349 209.239,284.890 201.616 L 285.090 198.802 282.467 199.848 C 281.024 200.423,279.314 200.990,278.666 201.108 L 277.489 201.322 278.888 197.380 C 279.657 195.211,280.251 193.438,280.209 193.438 C 280.166 193.438,278.677 195.070,276.898 197.066 M120.000 193.880 C 120.000 193.952,120.566 195.589,121.257 197.519 C 121.948 199.449,122.444 201.097,122.360 201.182 C 122.137 201.404,119.557 200.651,117.103 199.646 L 114.988 198.780 115.174 201.343 C 116.004 212.800,123.117 221.194,133.248 222.673 L 134.777 222.897 134.567 220.745 C 133.903 213.924,133.739 211.310,133.549 204.461 L 133.338 196.891 131.775 195.269 L 130.211 193.647 130.405 198.373 L 130.599 203.100 129.777 202.787 C 128.174 202.178,125.979 200.275,123.142 197.034 C 120.500 194.016,120.000 193.514,120.000 193.880 M94.743 207.578 C 93.769 216.119,93.518 218.981,93.090 226.406 L 92.711 232.969 93.875 235.625 C 99.041 247.410,110.201 261.843,123.905 274.461 L 127.966 278.201 131.874 277.992 C 134.023 277.877,136.219 277.707,136.753 277.615 L 137.725 277.447 134.878 271.024 L 132.031 264.601 123.421 255.816 C 112.536 244.711,111.079 242.724,105.753 231.719 C 101.978 223.918,101.347 222.221,103.630 226.016 C 111.199 238.592,120.944 250.742,130.742 259.815 L 134.058 262.885 137.576 262.833 C 141.891 262.769,141.579 263.236,140.975 257.746 L 140.469 253.147 131.632 243.333 C 122.208 232.866,118.739 228.668,114.508 222.605 L 111.855 218.805 109.755 218.162 C 103.639 216.291,98.407 210.441,96.237 203.047 C 95.577 200.800,95.483 201.086,94.743 207.578 M303.783 203.439 C 300.838 211.615,297.020 215.852,290.628 218.036 L 288.082 218.906 285.461 222.656 C 281.249 228.682,277.761 232.901,268.368 243.333 L 259.531 253.147 259.025 257.746 C 258.422 263.227,258.091 262.739,262.500 262.866 L 266.094 262.969 272.527 256.563 C 282.329 246.801,288.683 238.648,297.125 225.000 C 298.260 223.166,297.909 224.116,295.662 228.959 C 289.810 241.574,287.932 244.237,276.945 255.490 L 267.969 264.685 265.119 271.065 L 262.270 277.446 263.244 277.615 C 263.780 277.707,265.977 277.876,268.125 277.990 L 272.031 278.198 275.781 274.771 C 292.507 259.490,307.188 238.902,307.187 230.731 C 307.187 226.047,305.572 207.621,304.727 202.658 L 304.515 201.410 303.783 203.439 M92.500 244.883 L 92.500 251.797 94.766 254.771 C 102.731 265.228,114.184 277.537,122.891 285.000 C 125.804 287.496,125.758 287.624,122.614 285.771 C 115.648 281.666,112.012 278.323,99.257 264.297 C 92.218 256.556,92.759 256.999,92.965 259.141 C 93.051 260.043,93.351 263.453,93.631 266.719 C 93.911 269.984,94.260 272.971,94.405 273.356 C 95.395 275.976,110.800 291.226,120.000 298.694 C 124.520 302.363,124.604 302.487,121.406 300.786 C 115.009 297.382,111.168 294.327,102.382 285.650 L 94.920 278.281 95.115 279.844 C 95.223 280.703,95.609 283.328,95.973 285.676 L 96.635 289.945 99.489 291.906 C 104.611 295.424,109.468 299.254,113.544 302.990 L 117.545 306.658 122.444 305.628 C 125.139 305.062,127.458 304.498,127.598 304.373 C 127.738 304.249,126.177 301.702,124.130 298.714 C 122.082 295.726,120.449 293.229,120.502 293.165 C 120.554 293.101,123.422 292.732,126.875 292.344 C 130.328 291.956,133.218 291.574,133.297 291.494 C 133.741 291.050,127.054 280.080,125.528 278.750 C 112.471 267.368,101.346 254.043,94.478 241.563 L 92.501 237.969 92.500 244.883 M306.094 240.530 C 299.900 252.413,289.351 265.315,275.939 277.408 C 273.064 280.000,272.874 280.258,269.790 285.744 C 266.055 292.391,265.656 291.603,273.125 292.331 C 275.961 292.608,278.604 292.904,278.999 292.989 C 279.671 293.134,279.483 293.488,276.112 298.438 C 274.129 301.349,272.470 303.894,272.425 304.094 C 272.351 304.422,280.698 306.493,282.302 306.544 C 282.636 306.555,284.414 305.093,286.452 303.134 C 289.870 299.849,296.003 294.998,301.017 291.614 L 303.377 290.022 303.732 287.901 C 304.626 282.564,305.204 278.438,305.057 278.438 C 304.969 278.438,301.862 281.516,298.152 285.280 C 289.941 293.608,286.028 296.770,279.387 300.444 C 275.787 302.435,275.922 302.252,281.498 297.582 C 289.925 290.524,297.823 282.828,304.062 275.596 L 305.839 273.536 306.197 269.815 C 306.842 263.104,307.220 258.053,307.087 257.920 C 306.916 257.749,303.989 260.818,298.248 267.188 C 288.167 278.374,283.540 282.445,276.406 286.409 L 274.844 287.278 277.031 285.281 C 288.718 274.613,294.821 268.124,303.699 256.924 L 307.500 252.129 307.500 245.127 C 307.500 241.276,307.465 238.127,307.422 238.128 C 307.379 238.130,306.781 239.211,306.094 240.530 M182.012 245.968 C 178.304 249.876,164.520 258.607,162.987 258.019 C 162.747 257.927,162.246 256.120,161.751 253.558 C 161.294 251.190,160.869 249.202,160.807 249.140 C 160.593 248.927,154.908 254.533,154.199 255.657 C 148.739 264.303,144.707 274.927,143.302 284.375 C 142.283 291.221,141.719 307.174,142.479 307.643 C 142.959 307.940,148.726 303.391,151.341 300.653 C 156.443 295.313,160.346 287.618,165.940 271.875 C 167.008 268.867,168.010 266.195,168.165 265.938 C 168.335 265.655,168.368 267.957,168.249 271.719 C 167.730 288.083,169.696 294.488,177.584 302.133 L 178.978 303.485 179.964 302.289 C 187.500 293.147,191.141 257.248,185.402 248.668 C 184.520 247.349,183.708 245.984,183.597 245.635 C 183.326 244.781,183.090 244.831,182.012 245.968 M216.223 246.324 C 215.856 247.057,215.026 248.365,214.379 249.231 C 212.593 251.625,212.341 253.583,212.356 265.000 C 212.379 283.128,215.236 296.570,220.327 302.500 L 221.266 303.594 223.293 301.406 C 230.735 293.374,231.545 290.933,231.783 275.805 L 231.945 265.515 234.550 272.773 C 241.604 292.422,245.595 298.998,254.532 305.703 C 258.028 308.326,257.801 308.390,257.875 304.766 C 258.277 285.257,255.607 272.863,248.080 259.290 C 245.732 255.057,245.025 254.133,242.094 251.472 C 238.975 248.641,239.195 248.716,238.941 250.391 C 238.343 254.337,237.370 258.125,236.954 258.125 C 235.118 258.125,224.094 251.290,219.618 247.375 L 216.892 244.992 216.223 246.324 M189.760 255.078 C 191.418 264.388,188.987 287.461,185.359 296.856 C 184.575 298.886,184.415 298.670,186.972 299.032 C 190.708 299.561,194.742 298.609,198.074 296.412 C 198.991 295.807,199.858 295.313,200.000 295.313 C 200.142 295.313,201.009 295.807,201.926 296.412 C 205.258 298.609,209.292 299.561,213.028 299.032 C 215.658 298.659,215.536 299.034,214.252 295.266 C 210.838 285.247,208.738 262.169,210.517 254.226 L 210.725 253.295 209.972 253.835 C 204.086 258.056,196.803 258.261,191.033 254.367 C 190.276 253.856,189.614 253.438,189.562 253.438 C 189.511 253.438,189.600 254.176,189.760 255.078 M165.680 278.906 C 165.455 279.422,164.707 281.250,164.017 282.969 C 162.026 287.928,158.649 294.625,156.767 297.344 C 155.816 298.719,154.107 301.320,152.970 303.125 C 148.736 309.842,142.356 318.433,137.244 324.297 C 136.035 325.684,135.455 326.563,135.749 326.563 C 144.390 326.563,158.231 320.782,163.723 314.880 L 164.478 314.069 161.436 309.504 C 159.763 306.993,158.439 304.902,158.494 304.858 C 159.546 303.999,161.058 305.198,163.479 308.811 L 165.983 312.550 169.102 309.524 C 171.632 307.069,172.350 306.533,172.907 306.682 C 173.285 306.784,173.864 306.868,174.195 306.871 C 174.765 306.875,174.761 306.913,174.112 307.603 L 173.428 308.331 174.643 311.900 C 179.078 324.925,183.536 329.375,192.150 329.375 L 193.395 329.375 191.419 325.234 C 188.097 318.272,185.471 311.003,184.021 304.751 C 183.272 301.524,183.017 301.049,182.653 302.199 C 182.542 302.549,181.690 303.614,180.760 304.566 L 179.070 306.298 178.182 305.665 C 176.105 304.186,170.933 297.822,169.002 294.370 C 167.296 291.317,166.400 286.829,166.166 280.156 C 166.092 278.058,166.072 278.007,165.680 278.906 M233.791 282.951 C 233.076 292.253,230.712 297.090,223.340 304.334 L 221.316 306.323 219.879 304.999 C 219.088 304.270,218.142 303.189,217.775 302.595 C 216.931 301.230,216.833 301.368,215.950 305.156 C 214.545 311.185,211.312 319.962,208.036 326.641 L 206.694 329.375 207.956 329.370 C 216.450 329.333,220.937 324.994,225.167 312.724 L 226.652 308.417 225.968 307.689 L 225.284 306.961 226.617 306.782 C 227.946 306.604,227.957 306.611,230.836 309.396 C 234.384 312.828,233.902 312.893,236.765 308.594 C 238.542 305.926,239.328 304.999,239.814 304.996 C 240.174 304.993,240.801 304.902,241.207 304.794 C 241.819 304.630,241.400 305.412,238.774 309.340 C 237.029 311.949,235.682 314.215,235.781 314.375 C 236.078 314.856,240.331 318.235,242.344 319.590 C 247.543 323.090,254.879 325.538,262.791 326.414 L 264.801 326.637 263.635 325.272 C 257.523 318.112,251.158 309.580,247.114 303.125 C 245.984 301.320,244.254 298.648,243.270 297.188 C 241.216 294.137,237.924 287.483,235.772 282.031 C 234.958 279.969,234.263 278.245,234.227 278.201 C 234.191 278.157,233.995 280.294,233.791 282.951 M165.440 315.803 C 160.079 320.785,155.389 324.422,150.926 327.057 C 148.102 328.725,148.079 328.765,149.424 329.723 C 152.322 331.786,157.758 329.888,166.039 323.922 L 168.485 322.161 171.510 325.244 C 176.638 330.469,179.523 332.225,181.885 331.555 C 183.884 330.988,183.869 330.907,181.263 328.216 C 176.764 323.569,174.117 319.517,172.017 314.063 C 171.389 312.430,170.836 311.053,170.789 311.003 C 170.742 310.953,168.335 313.113,165.440 315.803 M228.651 312.606 C 227.103 317.516,223.575 323.182,219.206 327.773 C 216.250 330.879,216.218 331.010,218.291 331.532 C 220.771 332.157,224.251 329.954,229.202 324.625 L 231.480 322.173 235.505 324.887 C 243.292 330.137,248.013 331.685,250.524 329.810 C 251.810 328.850,251.687 328.652,248.594 326.711 C 242.681 323.001,239.942 320.836,233.542 314.811 C 228.727 310.277,229.303 310.537,228.651 312.606 M165.000 328.357 C 158.034 332.602,151.860 333.968,145.599 332.651 C 136.956 330.833,131.340 338.412,137.001 344.256 C 138.933 346.251,139.236 346.312,139.523 344.766 C 140.002 342.180,141.681 340.625,143.993 340.625 C 145.170 340.625,146.563 341.577,146.563 342.382 C 146.563 344.740,149.016 342.271,151.241 337.676 L 151.966 336.176 154.499 336.310 C 156.380 336.409,157.503 336.660,158.867 337.285 L 160.703 338.126 159.436 339.501 C 157.159 341.971,156.242 344.566,157.003 346.388 C 157.625 347.877,158.042 347.991,158.537 346.809 C 160.775 341.462,167.753 342.100,169.693 347.829 L 170.244 349.457 170.765 348.663 C 171.633 347.337,172.017 344.078,171.628 341.323 C 171.244 338.595,171.309 338.454,173.064 338.219 C 174.909 337.971,176.070 338.884,176.572 340.977 C 176.852 342.145,177.308 342.933,178.244 343.869 L 179.531 345.156 179.704 343.750 C 180.579 336.624,190.883 336.559,190.931 343.680 L 190.938 344.704 191.859 344.227 C 195.777 342.201,195.374 336.854,191.133 334.600 C 189.926 333.959,189.497 333.921,184.439 334.007 C 176.938 334.134,174.678 333.339,169.694 328.822 C 168.513 327.751,167.500 326.887,167.445 326.902 C 167.389 326.917,166.289 327.572,165.000 328.357 M230.232 328.865 C 225.464 333.291,223.060 334.134,215.561 334.007 C 207.930 333.878,204.678 335.969,205.418 340.532 C 205.753 342.592,209.063 345.768,209.063 344.029 C 209.063 340.511,212.690 337.563,215.942 338.439 C 218.321 339.079,220.313 341.495,220.313 343.740 C 220.313 345.777,222.812 343.544,223.434 340.951 C 223.930 338.886,225.101 337.972,226.936 338.219 C 228.691 338.454,228.756 338.595,228.372 341.323 C 227.978 344.113,228.370 347.347,229.265 348.700 L 229.815 349.531 230.223 348.099 C 231.870 342.326,238.736 341.306,241.348 346.447 L 242.099 347.925 242.688 347.026 C 243.901 345.176,243.064 342.214,240.564 339.501 L 239.297 338.126 241.133 337.285 C 242.497 336.660,243.620 336.409,245.501 336.310 L 248.034 336.176 248.759 337.676 C 249.672 339.560,252.460 343.750,252.801 343.750 C 252.942 343.750,253.149 343.386,253.260 342.942 C 254.305 338.778,260.574 340.732,260.618 345.234 C 260.629 346.328,261.233 346.080,262.999 344.256 C 268.660 338.412,263.044 330.833,254.401 332.651 C 248.132 333.969,242.148 332.644,234.896 328.331 C 233.550 327.530,232.425 326.882,232.396 326.890 C 232.367 326.898,231.393 327.787,230.232 328.865 M274.138 348.672 L 274.219 369.844 280.313 369.844 L 286.406 369.844 286.487 348.672 L 286.567 327.500 280.313 327.500 L 274.058 327.500 274.138 348.672 M268.476 339.733 C 266.564 344.398,265.000 348.413,265.000 348.654 C 265.000 349.179,271.535 365.339,271.920 365.766 C 272.069 365.931,272.188 358.342,272.188 348.656 C 272.188 339.083,272.135 331.250,272.070 331.250 C 272.005 331.250,270.388 335.067,268.476 339.733 M301.498 334.826 C 297.280 335.568,292.810 337.237,290.165 339.056 L 288.750 340.030 288.750 348.742 L 288.750 357.455 289.609 358.131 C 297.783 364.563,317.100 364.814,326.446 358.609 L 328.125 357.494 328.125 348.740 L 328.125 339.986 326.244 338.771 C 320.718 335.199,309.521 333.414,301.498 334.826 M330.313 348.750 L 330.313 363.125 334.375 363.125 L 338.438 363.125 338.438 348.750 L 338.438 334.375 334.375 334.375 L 330.313 334.375 330.313 348.750 M70.144 339.515 C 63.439 340.557,57.734 343.723,55.791 347.481 L 55.255 348.518 57.081 350.380 C 60.507 353.874,64.092 356.015,69.117 357.567 L 71.406 358.273 116.052 358.363 C 158.687 358.448,160.688 358.427,160.479 357.898 C 160.359 357.593,159.798 355.656,159.231 353.594 L 158.202 349.844 154.648 349.773 L 151.094 349.702 152.953 351.398 L 154.812 353.093 153.999 353.402 C 150.957 354.559,147.232 354.518,144.510 353.297 C 143.041 352.638,140.625 350.558,140.625 349.952 C 140.625 349.807,122.766 349.688,100.938 349.688 L 61.250 349.688 61.250 348.594 L 61.250 347.500 100.391 347.497 L 139.531 347.494 137.910 346.564 C 135.438 345.147,133.750 342.550,133.750 340.166 L 133.750 339.063 103.203 339.093 C 80.451 339.116,72.015 339.224,70.144 339.515 M150.368 341.484 C 149.492 342.816,148.533 344.235,148.237 344.637 C 147.728 345.330,147.729 345.422,148.274 346.434 L 148.848 347.500 152.335 347.500 L 155.821 347.500 155.685 345.624 C 155.537 343.565,155.859 342.472,157.230 340.391 L 158.104 339.063 155.032 339.063 L 151.961 339.063 150.368 341.484 M195.805 340.391 C 195.501 342.294,194.328 344.097,192.807 345.000 C 191.262 345.917,190.313 346.750,190.313 347.188 C 190.313 347.389,193.750 347.500,200.000 347.500 C 209.197 347.500,209.688 347.471,209.688 346.925 C 209.688 346.599,209.315 346.184,208.828 345.967 C 206.157 344.774,204.594 342.888,204.192 340.371 L 203.983 339.063 200.000 339.063 L 196.017 339.063 195.805 340.391 M242.770 340.391 C 244.143 342.475,244.464 343.565,244.314 345.634 L 244.178 347.519 247.727 347.431 L 251.277 347.344 251.895 346.366 L 252.514 345.388 251.430 344.091 C 250.834 343.378,249.837 341.955,249.213 340.928 L 248.080 339.063 244.988 339.063 L 241.896 339.063 242.770 340.391 M172.933 341.797 C 173.043 343.129,173.012 344.957,172.863 345.859 L 172.593 347.500 176.140 347.500 C 179.991 347.500,180.927 346.914,178.828 345.817 C 177.189 344.961,175.313 342.391,175.313 341.001 C 175.313 340.218,174.348 339.375,173.451 339.375 C 172.745 339.375,172.736 339.420,172.933 341.797 M183.406 339.997 C 181.583 340.961,181.159 341.916,180.906 345.625 C 180.661 349.227,180.100 351.252,178.716 353.524 C 177.626 355.316,177.834 355.497,180.649 355.203 C 185.112 354.737,187.863 351.976,189.241 346.579 C 190.552 341.442,187.400 337.886,183.406 339.997 M212.942 339.803 C 206.954 342.512,212.011 354.446,219.474 355.217 C 222.254 355.504,222.367 355.349,221.085 353.015 C 219.825 350.723,219.076 347.634,219.067 344.688 C 219.054 340.763,216.074 338.386,212.942 339.803 M225.205 339.946 C 224.920 340.261,224.688 340.760,224.688 341.056 C 224.688 342.394,222.780 344.977,221.172 345.817 C 219.073 346.914,220.009 347.500,223.860 347.500 L 227.407 347.500 227.137 345.859 C 226.988 344.957,226.957 343.129,227.067 341.797 L 227.268 339.375 226.495 339.375 C 226.070 339.375,225.489 339.632,225.205 339.946 M143.281 341.807 C 141.613 342.155,140.442 344.408,140.707 346.762 C 141.151 350.699,145.534 353.552,150.283 352.994 C 152.549 352.728,152.566 352.875,149.948 350.231 C 147.571 347.831,147.065 347.051,145.866 343.938 C 145.143 342.060,144.523 341.548,143.281 341.807 M255.410 342.029 C 255.044 342.286,254.362 343.495,253.895 344.716 C 253.030 346.981,251.142 349.560,248.926 351.504 C 247.501 352.755,247.519 352.779,250.052 353.016 C 253.851 353.371,257.249 351.691,258.773 348.706 C 260.017 346.267,259.258 342.811,257.300 341.993 C 256.048 341.470,256.214 341.466,255.410 342.029 M162.040 344.776 C 160.516 345.639,159.375 347.265,159.375 348.574 C 159.375 350.237,162.648 361.563,163.129 361.563 C 163.392 361.563,166.150 356.585,167.678 353.352 C 170.280 347.847,166.574 342.208,162.040 344.776 M233.982 344.984 C 231.503 346.556,230.708 349.003,231.730 351.914 C 232.307 353.557,236.627 361.561,236.937 361.562 C 237.511 361.564,240.625 350.573,240.625 348.546 C 240.625 345.197,236.843 343.169,233.982 344.984 M304.363 345.150 C 308.120 347.093,306.854 352.500,302.642 352.500 C 298.703 352.500,297.331 347.365,300.718 345.300 C 301.914 344.571,303.145 344.520,304.363 345.150 M320.434 345.417 C 321.531 346.136,322.286 347.970,322.036 349.305 C 321.269 353.392,315.442 353.649,314.363 349.644 C 313.448 346.243,317.446 343.460,320.434 345.417 M262.031 346.592 L 260.469 347.495 261.747 347.497 C 262.825 347.500,263.083 347.371,263.399 346.678 C 263.908 345.562,263.825 345.557,262.031 346.592 M301.455 347.446 C 300.683 348.300,300.800 349.583,301.703 350.175 C 302.627 350.780,303.584 350.543,304.235 349.550 C 305.391 347.786,302.872 345.880,301.455 347.446 M316.736 347.570 C 316.039 348.565,316.133 349.238,317.073 349.977 C 318.411 351.030,320.000 350.305,320.000 348.642 C 320.000 347.012,317.665 346.244,316.736 347.570 M170.734 350.602 C 170.193 351.095,169.647 351.829,169.521 352.233 C 169.396 352.638,168.715 354.094,168.009 355.469 C 167.302 356.844,166.676 358.074,166.617 358.203 C 166.559 358.332,181.569 358.438,199.974 358.438 C 218.379 358.438,233.438 358.376,233.438 358.301 C 233.438 357.627,230.100 351.491,229.306 350.705 L 228.281 349.691 224.609 349.689 C 222.590 349.688,220.938 349.773,220.938 349.876 C 220.938 350.384,222.676 353.432,223.628 354.594 L 224.704 355.906 223.524 356.146 C 218.320 357.203,213.385 355.183,211.226 351.113 L 210.470 349.688 199.960 349.688 L 189.451 349.688 189.034 350.703 C 187.433 354.602,182.502 357.033,177.755 356.262 C 176.669 356.086,175.667 355.941,175.528 355.940 C 175.389 355.939,175.830 355.270,176.509 354.453 C 177.744 352.967,178.481 351.708,178.888 350.391 C 179.270 349.151,172.125 349.336,170.734 350.602 M241.683 350.547 C 241.571 351.020,241.029 352.988,240.480 354.922 L 239.481 358.438 253.026 358.438 L 266.571 358.438 266.071 357.266 C 265.796 356.621,264.997 354.652,264.296 352.891 L 263.021 349.688 261.370 349.688 C 259.861 349.688,259.650 349.778,258.911 350.747 C 256.408 354.029,250.781 355.220,246.130 353.451 L 245.280 353.128 247.093 351.419 L 248.906 349.710 245.397 349.699 L 241.887 349.688 241.683 350.547 " stroke="none" fill="#f1da82" fill-rule="evenodd"></path></g></svg>